<svg width="3805" height="817" viewBox="0 0 3805 817" fill="none" xmlns="http://www.w3.org/2000/svg">
<path d="M815.841 407.908C815.841 182.627 633.209 0 407.921 0C182.632 0 0 182.627 0 407.908C0 633.19 182.632 815.817 407.921 815.817C633.209 815.817 815.841 633.19 815.841 407.908Z" fill="#02021E"/>
<path opacity="0.4" d="M3637.39 522.83V259.324H3675.21V362.147H3678.18C3682.82 352.04 3689.68 344.138 3698.74 338.445C3707.82 332.752 3719.26 329.906 3733.08 329.906C3747.13 329.906 3759.06 332.637 3768.82 338.097C3778.58 343.557 3786 351.575 3791.11 362.147C3796.22 372.605 3798.79 385.327 3798.79 400.315V522.83H3760.79V409.202C3760.79 393.401 3757.47 381.666 3750.87 373.998C3744.35 366.213 3734.13 362.322 3720.19 362.322C3711 362.322 3703.04 364.355 3696.31 368.422C3689.57 372.371 3684.34 378.065 3680.63 385.499C3677.03 392.82 3675.21 401.592 3675.21 411.816V522.83H3637.39Z" fill="#FAFAFA" fill-opacity="0.75"/>
<path opacity="0.4" d="M3531.2 522.841V311.616H3528.42L3465.14 356.755V318.414L3531.37 271.359H3570.42V522.841H3531.2Z" fill="#FAFAFA" fill-opacity="0.75"/>
<path d="M175.811 493.167C162.133 455.494 157.839 415.056 163.303 375.351C168.766 335.646 183.822 297.87 207.167 265.293C286.534 154.317 440.797 128.781 551.724 208.151C662.65 287.522 688.231 441.79 608.863 552.72C529.495 663.651 375.233 689.232 264.306 609.861C242.359 594.192 223.129 575.03 207.382 553.139" stroke="white" stroke-width="1.5" stroke-miterlimit="10"/>
<path d="M185.998 482.828C174.322 447.81 171.108 410.525 176.619 374.026C182.131 337.527 196.212 302.853 217.707 272.845C292.904 167.751 439.061 143.516 544.155 218.713C649.249 293.909 673.484 440.054 598.287 545.148C523.091 650.241 376.956 674.487 271.896 599.291C252.548 585.474 235.418 568.79 221.094 549.814" stroke="white" stroke-width="1.5" stroke-miterlimit="10"/>
<path d="M176 533L443 298.825L393.483 231L176 533Z" fill="white"/>
<path d="M226 507C304.074 446.341 382.104 385.674 460.087 325L500 380.595L226 507Z" fill="white"/>
<path d="M289 492L516.554 404L549 449.679L289 492Z" fill="white"/>
<path d="M397 482.701L566.595 474L595 513L397 482.701Z" fill="white"/>
<path opacity="0.6" d="M1349.73 512H1294.19L1272.11 454.561H1171.03L1150.16 512H1096L1194.49 259.129H1248.48L1349.73 512ZM1255.73 411.956L1220.88 318.121L1186.73 411.956H1255.73ZM1380.17 512V259.129H1428.64V512H1380.17ZM1480.65 328.815H1525.84V355.724C1531.7 346.524 1539.64 339.05 1549.64 333.3C1559.65 327.55 1570.74 324.676 1582.93 324.676C1604.21 324.676 1622.26 333.013 1637.09 349.687C1651.93 366.361 1659.35 389.589 1659.35 419.373C1659.35 449.961 1651.87 473.765 1636.92 490.784C1621.97 507.688 1603.86 516.14 1582.59 516.14C1572.47 516.14 1563.27 514.127 1554.99 510.103C1546.83 506.078 1538.2 499.178 1529.12 489.404V581.686H1480.65V328.815ZM1528.6 417.303C1528.6 437.887 1532.68 453.123 1540.85 463.013C1549.01 472.787 1558.96 477.674 1570.69 477.674C1581.96 477.674 1591.33 473.19 1598.8 464.22C1606.28 455.136 1610.01 440.302 1610.01 419.718C1610.01 400.514 1606.16 386.255 1598.46 376.94C1590.75 367.626 1581.21 362.968 1569.82 362.968C1557.98 362.968 1548.15 367.568 1540.33 376.768C1532.51 385.852 1528.6 399.364 1528.6 417.303ZM1749.81 259.129V352.102C1765.45 333.818 1784.14 324.676 1805.87 324.676C1817.03 324.676 1827.09 326.745 1836.06 330.885C1845.03 335.025 1851.76 340.315 1856.24 346.754C1860.84 353.194 1863.94 360.324 1865.55 368.143C1867.28 375.963 1868.14 388.095 1868.14 404.539V512H1819.67V415.233C1819.67 396.029 1818.75 383.84 1816.91 378.665C1815.07 373.49 1811.8 369.408 1807.08 366.418C1802.48 363.313 1796.67 361.761 1789.66 361.761C1781.61 361.761 1774.42 363.716 1768.1 367.626C1761.77 371.535 1757.12 377.458 1754.13 385.392C1751.25 393.212 1749.81 404.826 1749.81 420.235V512H1701.34V259.129H1749.81ZM1957.23 384.702L1913.24 376.768C1918.19 359.059 1926.7 345.949 1938.77 337.44C1950.85 328.93 1968.79 324.676 1992.59 324.676C2014.21 324.676 2030.31 327.263 2040.89 332.438C2051.47 337.497 2058.88 343.995 2063.14 351.929C2067.51 359.749 2069.69 374.18 2069.69 395.224L2069.18 451.801C2069.18 467.9 2069.92 479.802 2071.42 487.506C2073.03 495.096 2075.96 503.26 2080.22 512H2032.26C2031 508.78 2029.45 504.008 2027.61 497.683C2026.8 494.808 2026.23 492.911 2025.88 491.991C2017.6 500.041 2008.75 506.078 1999.32 510.103C1989.89 514.127 1979.83 516.14 1969.13 516.14C1950.27 516.14 1935.38 511.023 1924.46 500.788C1913.65 490.554 1908.24 477.617 1908.24 461.978C1908.24 451.628 1910.72 442.429 1915.66 434.379C1920.6 426.215 1927.5 420.005 1936.36 415.75C1945.33 411.381 1958.21 407.586 1975 404.366C1997.65 400.111 2013.35 396.144 2022.09 392.464V387.635C2022.09 378.32 2019.79 371.708 2015.19 367.798C2010.59 363.773 2001.9 361.761 1989.14 361.761C1980.52 361.761 1973.79 363.486 1968.96 366.936C1964.13 370.271 1960.22 376.193 1957.23 384.702ZM2022.09 424.03C2015.88 426.1 2006.04 428.572 1992.59 431.447C1979.14 434.322 1970.34 437.139 1966.2 439.899C1959.87 444.384 1956.71 450.076 1956.71 456.976C1956.71 463.76 1959.24 469.625 1964.3 474.57C1969.36 479.514 1975.8 481.987 1983.62 481.987C1992.36 481.987 2000.7 479.112 2008.63 473.362C2014.5 468.992 2018.35 463.645 2020.19 457.321C2021.45 453.181 2022.09 445.304 2022.09 433.689V424.03ZM2119.11 512V259.129H2167.58V350.204C2182.53 333.185 2200.24 324.676 2220.71 324.676C2243.01 324.676 2261.47 332.783 2276.07 348.997C2290.68 365.096 2297.98 388.267 2297.98 418.51C2297.98 449.789 2290.51 473.88 2275.56 490.784C2260.72 507.688 2242.67 516.14 2221.4 516.14C2210.93 516.14 2200.58 513.552 2190.35 508.378C2180.23 503.088 2171.49 495.326 2164.13 485.092V512H2119.11ZM2167.23 416.44C2167.23 435.414 2170.22 449.444 2176.2 458.528C2184.6 471.407 2195.75 477.847 2209.67 477.847C2220.36 477.847 2229.44 473.305 2236.92 464.22C2244.51 455.021 2248.3 440.589 2248.3 420.925C2248.3 399.996 2244.51 384.932 2236.92 375.733C2229.33 366.418 2219.61 361.761 2207.77 361.761C2196.15 361.761 2186.49 366.303 2178.79 375.388C2171.09 384.357 2167.23 398.041 2167.23 416.44ZM2446.75 453.698L2495.05 461.805C2488.84 479.514 2479.01 493.026 2465.55 502.341C2452.21 511.54 2435.48 516.14 2415.36 516.14C2383.5 516.14 2359.93 505.733 2344.64 484.919C2332.56 468.245 2326.52 447.201 2326.52 421.788C2326.52 391.429 2334.46 367.683 2350.33 350.549C2366.2 333.3 2386.26 324.676 2410.53 324.676C2437.78 324.676 2459.28 333.703 2475.04 351.757C2490.79 369.696 2498.32 397.236 2497.63 434.379H2376.2C2376.55 448.754 2380.46 459.965 2387.93 468.015C2395.41 475.95 2404.72 479.917 2415.87 479.917C2423.46 479.917 2429.85 477.847 2435.02 473.707C2440.2 469.567 2444.11 462.898 2446.75 453.698ZM2449.51 404.711C2449.17 390.682 2445.54 380.045 2438.64 372.8C2431.74 365.441 2423.35 361.761 2413.46 361.761C2402.88 361.761 2394.14 365.613 2387.24 373.318C2380.34 381.022 2376.95 391.487 2377.06 404.711H2449.51ZM2624.84 328.815V367.453H2591.72V441.279C2591.72 456.228 2592.01 464.968 2592.59 467.498C2593.28 469.912 2594.71 471.925 2596.9 473.535C2599.2 475.145 2601.96 475.95 2605.18 475.95C2609.66 475.95 2616.16 474.397 2624.67 471.292L2628.81 508.895C2617.54 513.725 2604.78 516.14 2590.52 516.14C2581.78 516.14 2573.9 514.702 2566.89 511.828C2559.87 508.838 2554.7 505.043 2551.36 500.443C2548.14 495.728 2545.9 489.404 2544.64 481.469C2543.6 475.835 2543.08 464.45 2543.08 447.316V367.453H2520.83V328.815H2543.08V292.42L2591.72 264.132V328.815H2624.84Z" fill="#FAFAFA"/>
</svg>
